<svg width="189" height="189" xmlns="http://www.w3.org/2000/svg" xmlns:xlink="http://www.w3.org/1999/xlink" xml:space="preserve" overflow="hidden"><g transform="translate(-584 -661)"><path d="M660.742 712.168C660.742 725.205 650.173 735.773 637.137 735.773 624.1 735.773 613.531 725.205 613.531 712.168 613.531 699.131 624.1 688.562 637.137 688.562 650.173 688.562 660.742 699.131 660.742 712.168Z" fill="#215F9A"/><path d="M742.78 692.244 676.531 708.782 676.531 727.721 689.623 731.009 690.982 736.817C689.69 737.297 688.52 738.056 687.556 739.041L668.44 758.138 659.58 758.138C655.292 745.815 641.826 739.302 629.503 743.59 620.2 746.827 613.882 755.497 613.649 765.344L613.649 822.438 660.781 822.438 660.781 777.826 672.594 777.826C675.206 777.83 677.714 776.796 679.563 774.951L701.554 752.96C703.955 750.521 704.917 747.01 704.094 743.688L710 745.144 710.807 745.144C711.712 745.137 712.568 744.734 713.15 744.042L718.367 737.939 742.76 744.042C744.027 744.241 745.216 743.375 745.415 742.107 745.425 742.044 745.433 741.98 745.438 741.916L745.438 694.252C745.41 693.078 744.435 692.149 743.261 692.177 743.099 692.181 742.937 692.203 742.78 692.244ZM710.453 740.793 700.826 738.451C699.261 737.146 697.326 736.367 695.293 736.226L694.368 732.072 713.819 736.836Z" fill="#215F9A"/><path d="M669.719 726.382C671.307 726.382 672.594 725.095 672.594 723.508L672.594 711.695C672.594 710.108 671.307 708.821 669.719 708.821 668.132 708.821 666.845 710.108 666.845 711.695L666.845 723.508C666.845 725.095 668.132 726.382 669.719 726.382Z" fill="#215F9A"/></g></svg>