<svg width="189" height="189" xmlns="http://www.w3.org/2000/svg" xmlns:xlink="http://www.w3.org/1999/xlink" xml:space="preserve" overflow="hidden"><g transform="translate(-34 -32)"><path d="M95.0312 93.0312 73.375 93.0312 73.375 79.25 95.0312 79.25 95.0312 93.0312ZM124.562 79.25 124.562 93.0312 102.906 93.0312 102.906 79.25 124.562 79.25ZM154.094 79.25 154.094 93.0312 132.438 93.0312 132.438 79.25 154.094 79.25ZM183.625 79.25 183.625 93.0312 161.969 93.0312 161.969 79.25 183.625 79.25ZM183.625 114.688 161.969 114.688 161.969 100.906 183.625 100.906 183.625 114.688ZM183.625 131.422 161.969 133.391 161.969 122.562 183.625 122.562 183.625 131.422ZM95.0312 122.562 95.0312 139.297 73.375 141.266 73.375 122.562 95.0312 122.562ZM95.0312 114.688 73.375 114.688 73.375 100.906 95.0312 100.906 95.0312 114.688ZM124.562 114.688 102.906 114.688 102.906 100.906 124.562 100.906 124.562 114.688ZM132.438 114.688 132.438 100.906 154.094 100.906 154.094 114.688 132.438 114.688ZM124.562 136.738 102.906 138.706 102.906 122.562 124.562 122.562 124.562 136.738ZM132.438 122.562 154.094 122.562 154.094 133.981 132.438 135.95 132.438 122.562ZM195.438 142.25 195.438 67.4375 73.375 67.4375 73.375 65.4688C73.375 55.625 65.5 47.75 55.6562 47.75 52.3094 47.75 49.75 50.3094 49.75 53.6562 49.75 57.0031 52.3094 59.5625 55.6562 59.5625 59.0031 59.5625 61.5625 62.1219 61.5625 65.4688L61.5625 163.906C61.5625 173.75 69.4375 181.625 79.2812 181.625L85.1875 181.625 171.812 181.625 189.531 181.625C192.878 181.625 195.438 179.066 195.438 175.719 195.438 172.372 192.878 169.812 189.531 169.812L79.2812 169.812C75.9344 169.812 73.375 167.253 73.375 163.906L73.375 153.078 195.438 142.25Z" fill="#215F9A"/><path d="M97 193.438C97 199.961 91.7114 205.25 85.1875 205.25 78.6636 205.25 73.375 199.961 73.375 193.438 73.375 186.914 78.6636 181.625 85.1875 181.625 91.7114 181.625 97 186.914 97 193.438Z" fill="#215F9A"/><path d="M183.625 193.438C183.625 199.961 178.336 205.25 171.812 205.25 165.289 205.25 160 199.961 160 193.438 160 186.914 165.289 181.625 171.812 181.625 178.336 181.625 183.625 186.914 183.625 193.438Z" fill="#215F9A"/></g></svg>