<svg width="189" height="189" xmlns="http://www.w3.org/2000/svg" xmlns:xlink="http://www.w3.org/1999/xlink" xml:space="preserve" overflow="hidden"><g transform="translate(-625 -32)"><path d="M719.5 173.75C722.847 173.75 725.406 176.309 725.406 179.656 725.406 183.003 722.847 185.562 719.5 185.562 716.153 185.562 713.594 183.003 713.594 179.656 713.594 176.309 716.153 173.75 719.5 173.75ZM640.75 193.438 798.25 193.438 798.25 165.875 640.75 165.875 640.75 193.438Z" fill="#215F9A"/><path d="M680.125 98.9375 699.812 98.9375 699.812 106.812 680.125 106.812Z" fill="#215F9A"/><path d="M680.125 83.1875 699.812 83.1875 699.812 91.0625 680.125 91.0625Z" fill="#215F9A"/><path d="M680.125 67.4375 699.812 67.4375 699.812 75.3125 680.125 75.3125Z" fill="#215F9A"/><path d="M774.625 114.688 727.375 114.688 727.375 95 774.625 95 774.625 114.688ZM707.688 114.688 672.25 114.688 672.25 59.5625 707.688 59.5625 707.688 114.688ZM786.438 114.688 786.438 91.0625C786.438 86.7312 782.894 83.1875 778.562 83.1875L715.562 83.1875 715.562 55.625C715.562 53.4594 713.791 51.6875 711.625 51.6875L668.312 51.6875C666.147 51.6875 664.375 53.4594 664.375 55.625L664.375 83.1875 660.438 83.1875C656.106 83.1875 652.562 86.7312 652.562 91.0625L652.562 114.688 640.75 142.25 640.75 158 798.25 158 798.25 142.25 786.438 114.688Z" fill="#215F9A"/></g></svg>