<svg width="189" height="189" xmlns="http://www.w3.org/2000/svg" xmlns:xlink="http://www.w3.org/1999/xlink" xml:space="preserve" overflow="hidden"><g transform="translate(-864 -881)"><path d="M1033.31 1020.78 1027.41 1026.69 891.562 1026.69 883.688 1018.81 883.688 979.438 891.562 971.562 1027.41 971.562 1033.31 977.469 1033.31 1020.78ZM871.875 959.75 871.875 1038.5 1045.12 1038.5 1045.12 959.75 871.875 959.75Z" fill="#215F9A"/><path d="M974.25 999.125C974.25 1010 967.198 1018.81 958.5 1018.81 949.802 1018.81 942.75 1010 942.75 999.125 942.75 988.252 949.802 979.438 958.5 979.438 967.198 979.438 974.25 988.252 974.25 999.125Z" fill="#215F9A"/><path d="M915.188 999.125C915.188 1002.39 912.543 1005.03 909.281 1005.03 906.019 1005.03 903.375 1002.39 903.375 999.125 903.375 995.863 906.019 993.219 909.281 993.219 912.543 993.219 915.188 995.863 915.188 999.125Z" fill="#215F9A"/><path d="M1013.62 999.125C1013.62 1002.39 1010.98 1005.03 1007.72 1005.03 1004.46 1005.03 1001.81 1002.39 1001.81 999.125 1001.81 995.863 1004.46 993.219 1007.72 993.219 1010.98 993.219 1013.62 995.863 1013.62 999.125Z" fill="#215F9A"/><path d="M993.741 921.753 996.694 929.234 1008.51 926.872 1000.24 906.2 894.319 949.513 954.956 937.503Z" fill="#215F9A"/><path d="M983.503 951.875 1014.61 945.772 1015.99 951.875 1028 951.875 1024.06 931.794 923.062 951.875Z" fill="#215F9A"/></g></svg>