<svg width="189" height="189" xmlns="http://www.w3.org/2000/svg" xmlns:xlink="http://www.w3.org/1999/xlink" xml:space="preserve" overflow="hidden"><g transform="translate(-906 -661)"><path d="M1006.42 781.094C1006.42 784.356 1003.77 787 1000.51 787 997.248 787 994.603 784.356 994.603 781.094 994.603 777.832 997.248 775.188 1000.51 775.188 1003.77 775.188 1006.42 777.832 1006.42 781.094Z" fill="#215F9A"/><path d="M1012.32 783.062C1012.32 789.586 1007.03 794.875 1000.51 794.875 993.986 794.875 988.697 789.586 988.697 783.062L988.697 767.312 925.697 767.312 925.697 824.406 1075.32 824.406 1075.32 767.312 1012.32 767.312ZM933.572 816.531 933.572 801.176C941.297 802.77 947.333 808.806 948.926 816.531ZM1067.45 801.176 1067.45 816.531 1052.09 816.531C1053.69 808.806 1059.72 802.77 1067.45 801.176Z" fill="#215F9A"/><path d="M1075.32 707.367 1075.32 706.281 1071.41 696.494C1069.02 690.515 1063.22 686.594 1056.78 686.594L944.235 686.594C937.795 686.594 932.004 690.515 929.612 696.494L925.699 706.277 925.699 712.496 935.757 735.964 925.697 759.438 973.899 759.438C976.077 758.68 978.185 757.733 980.198 756.608 980.976 757.023 981.783 757.38 982.613 757.676 982.339 757.84 982.086 758.007 981.803 758.168 980.975 758.636 980.163 759.052 979.363 759.438L1075.32 759.438 1065.26 735.964 1075.32 712.487ZM964.068 756.629C961.838 757.287 959.55 757.727 957.235 757.945 950.769 758.599 945.383 757.699 945.204 755.936L945.11 755C948.982 756.084 953.036 756.362 957.02 755.816 959.478 755.582 961.909 755.126 964.285 754.455 964.038 755.152 963.964 755.898 964.068 756.629ZM956.697 752.623C950.231 753.277 944.844 752.378 944.666 750.614 944.487 748.851 949.585 746.891 956.051 746.237 956.186 746.223 956.315 746.217 956.449 746.204 958.934 747.818 961.6 749.133 964.393 750.123 964.757 750.256 965.168 750.4 965.609 750.549 962.758 751.679 959.754 752.378 956.697 752.623ZM968.657 739.06 971.028 743.247C969.851 742.938 968.611 742.553 967.338 742.087 961.235 739.851 956.783 736.69 957.392 735.025 957.961 733.473 962.735 733.773 968.327 735.635 967.947 736.772 968.067 738.017 968.657 739.06ZM966.234 745.101C968.048 745.767 969.904 746.315 971.79 746.739 971.051 747.222 970.279 747.766 969.516 748.348 968.156 748.005 966.815 747.592 965.497 747.11 959.395 744.874 954.943 741.712 955.552 740.048L955.876 739.164C958.886 741.831 962.411 743.852 966.234 745.101ZM1002.79 736.052C996.358 737.001 990.936 736.349 990.677 734.596 990.418 732.843 995.421 730.651 1001.85 729.702 1008.28 728.753 1013.7 729.405 1013.96 731.158 1014.22 732.911 1009.22 735.103 1002.79 736.052ZM1014.6 735.519 1014.74 736.449C1015 738.203 1010 740.394 1003.57 741.344 997.14 742.293 991.718 741.641 991.459 739.888L991.321 738.957C995.24 739.863 999.302 739.955 1003.26 739.227 1007.25 738.78 1011.12 737.518 1014.6 735.519ZM983.271 734.473C977.616 737.675 972.324 739.021 971.45 737.478 970.577 735.936 974.453 732.09 980.108 728.887 985.764 725.685 991.056 724.339 991.93 725.881 992.803 727.423 988.926 731.27 983.271 734.473ZM987.919 737.887C987.275 738.305 986.621 738.723 985.907 739.127 980.252 742.33 974.959 743.675 974.086 742.133L973.622 741.314C977.603 740.748 981.426 739.369 984.853 737.265 985.615 736.833 986.57 736.257 987.58 735.592ZM967.346 756.519C966.473 754.977 970.349 751.13 976.004 747.928 976.352 747.731 976.69 747.565 977.034 747.383L976.542 751.212C976.393 752.362 976.726 753.522 977.46 754.419 972.485 756.946 968.13 757.904 967.346 756.519ZM1003.07 754.622C1002.84 756.38 997.433 757.133 990.987 756.305 984.541 755.476 979.499 753.379 979.725 751.621L979.844 750.688C983.37 752.622 987.256 753.811 991.26 754.182 995.227 754.836 999.287 754.668 1003.19 753.688ZM991.669 750.999C985.223 750.171 980.181 748.074 980.407 746.316 980.633 744.558 986.041 743.804 992.487 744.633 998.933 745.462 1003.98 747.559 1003.75 749.317 1003.52 751.075 998.115 751.828 991.669 750.999ZM1009.54 754.998C1008.42 754.854 1007.34 754.671 1006.32 754.458L1006.6 752.34C1007.81 752.583 1008.93 752.763 1009.81 752.876 1012.51 753.244 1015.25 753.326 1017.97 753.122 1018.01 753.754 1018.19 754.369 1018.5 754.92L1018.56 755.02C1015.57 755.45 1012.53 755.443 1009.54 754.998ZM1018.96 749.761C1016.06 750.138 1013.12 750.115 1010.22 749.693 1009.07 749.545 1007.98 749.355 1006.94 749.136 1006.77 747.136 1005.53 745.385 1003.7 744.566 1003.81 744.55 1003.93 744.534 1004.04 744.518 1006.06 744.223 1008.07 743.787 1010.03 743.212 1010.37 743.246 1010.7 743.283 1011.04 743.327 1015.94 743.957 1020.02 745.321 1021.6 746.711 1020.59 747.604 1019.7 748.63 1018.96 749.76ZM1017.43 738.64C1019.2 739.423 1021.01 740.088 1022.87 740.631 1026.69 741.9 1030.72 742.372 1034.73 742.018L1034.46 742.921C1033.96 744.621 1028.5 744.515 1022.27 742.683 1020.13 742.07 1018.06 741.265 1016.07 740.277 1016.61 739.818 1017.07 739.263 1017.43 738.64ZM1016.94 729.951C1019.87 730.031 1022.78 730.516 1025.58 731.393 1031.82 733.225 1036.47 736.089 1035.97 737.789 1035.47 739.49 1030.01 739.383 1023.78 737.552 1021.72 736.96 1019.73 736.192 1017.81 735.257L1017.13 730.689C1017.09 730.438 1017.02 730.191 1016.94 729.951ZM1021.29 753.339C1020.62 752.141 1022.82 749.553 1026.48 746.956 1031.07 747.728 1036.4 747.709 1037.54 743.826L1038.27 741.342C1040.08 740.957 1041.38 741.049 1041.77 741.741 1042.65 743.284 1038.77 747.13 1033.12 750.332 1027.46 753.535 1022.17 754.881 1021.29 753.339ZM1023.93 757.993 1023.47 757.174C1027.45 756.607 1031.27 755.229 1034.7 753.125 1038.26 751.269 1041.41 748.7 1043.95 745.577L1044.41 746.396C1045.28 747.938 1041.41 751.785 1035.75 754.987 1030.1 758.19 1024.8 759.535 1023.93 757.993ZM1047.67 746.18C1053.84 745.649 1058.88 746.542 1059.05 748.245 1059.23 750.009 1054.13 751.969 1047.67 752.623 1046.5 752.741 1045.39 752.794 1044.32 752.815 1046.49 750.786 1048.07 748.457 1047.67 746.18ZM1048.21 757.945C1044.8 758.416 1041.33 758.23 1037.99 757.398 1038.7 756.981 1039.52 756.476 1040.37 755.904 1042.91 756.115 1045.46 756.085 1047.99 755.816 1052 755.553 1055.92 754.469 1059.5 752.631L1059.59 753.567C1059.77 755.331 1054.67 757.29 1048.21 757.945ZM1067.45 710.871 1058.45 731.875 1034.97 731.875C1032.3 730.339 1029.45 729.143 1026.49 728.314 1023.55 727.45 1017.88 726.097 1014.04 727.07 1010.38 725.501 1004.45 726.073 1001.38 726.527 999.751 726.767 998.134 727.095 996.539 727.509L994.722 724.3C991.868 719.259 982.445 723.876 978.527 726.095 975.672 727.655 973.046 729.6 970.72 731.875L966.996 731.875C963.27 730.847 958.599 730.127 956.002 731.875L942.572 731.875 933.574 710.88 933.574 706.282 1067.45 706.282Z" fill="#215F9A"/></g></svg>