<svg width="189" height="189" xmlns="http://www.w3.org/2000/svg" xmlns:xlink="http://www.w3.org/1999/xlink" xml:space="preserve" overflow="hidden"><g transform="translate(-449 -197)"><path d="M494.281 236.375 515.938 236.375 515.938 248.188 571.062 248.188 571.062 236.375 592.719 236.375 592.719 358.438 494.281 358.438 494.281 236.375ZM543.697 220.625C546.847 220.625 549.406 223.381 549.406 226.531 549.406 229.878 546.847 232.438 543.5 232.438 540.153 232.438 537.594 229.878 537.594 226.531 537.594 223.184 540.153 220.625 543.697 220.625ZM482.469 232.438 482.469 362.375C482.469 366.706 486.013 370.25 490.344 370.25L596.656 370.25C600.987 370.25 604.531 366.706 604.531 362.375L604.531 232.438C604.531 228.106 600.987 224.562 596.656 224.562L563.188 224.562 563.188 220.625C563.188 216.294 559.644 212.75 555.312 212.75L531.688 212.75C527.356 212.75 523.812 216.294 523.812 220.625L523.812 224.562 490.344 224.562C486.013 224.562 482.469 228.106 482.469 232.438Z" fill="#215F9A"/><path d="M506.094 263.938 580.906 263.938 580.906 271.812 506.094 271.812Z" fill="#215F9A"/><path d="M506.094 321.031 535.625 321.031 535.625 328.906 506.094 328.906Z" fill="#215F9A"/><path d="M543.5 279.688 580.906 279.688 580.906 287.562 543.5 287.562Z" fill="#215F9A"/><path d="M550.981 334.222 543.5 347.806 549.997 346.822 553.344 352.138 561.219 337.962C560.234 337.766 559.25 337.372 558.266 336.781 557.872 336.781 557.478 336.978 556.888 336.978 555.903 336.978 554.722 336.781 553.737 336.388 552.753 335.797 551.769 335.206 550.981 334.222Z" fill="#215F9A"/><path d="M563.778 337.962 571.259 352.531 574.409 346.625 580.709 348.003 573.622 333.828 573.425 333.828C572.638 335.009 571.259 335.994 569.881 336.584 568.897 336.978 568.109 337.175 567.125 337.175 566.731 337.175 566.338 337.175 565.944 337.175 565.353 337.569 564.566 337.766 563.778 337.962Z" fill="#215F9A"/><path d="M551.769 316.897 551.769 316.897C551.769 310.794 556.691 306.069 562.597 306.069 568.7 306.069 573.425 310.991 573.425 316.897 573.425 322.803 568.503 327.725 562.597 327.725 556.494 327.725 551.769 322.803 551.769 316.897ZM544.091 316.897C544.091 318.078 544.484 319.259 545.272 320.047 544.878 321.228 544.878 322.409 545.272 323.591 545.666 324.772 546.65 325.756 548.028 326.347 548.028 327.725 548.422 328.906 549.406 329.891 550.194 330.678 551.375 331.269 552.556 331.269 552.95 332.45 553.934 333.237 554.919 333.631 556.1 334.222 557.478 334.222 558.856 333.631 559.841 334.616 561.022 335.206 562.4 335.206 563.581 335.206 564.763 334.812 565.55 334.025 566.731 334.419 567.912 334.419 569.094 334.025 570.275 333.631 571.259 332.647 571.85 331.269 573.228 331.269 574.409 330.875 575.394 329.891 576.181 329.103 576.772 327.922 576.772 326.741 577.953 326.347 578.741 325.362 579.134 324.378 579.725 323.197 579.725 321.819 579.134 320.441 580.119 319.456 580.709 318.275 580.709 316.897 580.709 315.716 580.316 314.534 579.528 313.747 579.922 312.566 579.922 311.384 579.528 310.203 579.134 309.022 578.15 308.038 576.772 307.447 576.772 306.069 576.378 304.888 575.394 303.903 574.606 303.116 573.425 302.525 572.244 302.525 571.85 301.344 570.866 300.556 569.881 300.163 568.7 299.572 567.322 299.572 565.944 300.163 564.959 299.178 563.778 298.587 562.4 298.587 561.219 298.587 560.037 298.981 559.25 299.769 558.069 299.375 556.888 299.375 555.706 299.769 554.525 300.163 553.541 301.147 552.95 302.525 551.572 302.525 550.391 302.919 549.406 303.903 548.619 304.691 548.028 305.872 548.028 307.053 546.847 307.447 546.059 308.431 545.666 309.416 545.075 310.597 545.075 311.975 545.666 313.353 544.484 314.141 544.091 315.519 544.091 316.897L544.091 316.897Z" fill="#215F9A"/></g></svg>