<svg width="2422" height="2422" xmlns="http://www.w3.org/2000/svg" xmlns:xlink="http://www.w3.org/1999/xlink" xml:space="preserve" overflow="hidden"><g transform="translate(-738 -738)"><path d="M939.833 2403.13 939.833 1242.58 2958.17 1242.58 2958.17 2403.13 939.833 2403.13ZM2150.83 2705.88 1747.17 2705.88 1747.17 2554.5 2150.83 2554.5 2150.83 2705.88ZM3109.54 2554.5 3109.54 1091.21 788.458 1091.21 788.458 2554.5 1595.79 2554.5 1595.79 2705.88 1141.67 2705.88C1113.91 2705.88 1091.21 2728.58 1091.21 2756.33L1091.21 2806.79 2806.79 2806.79 2806.79 2756.33C2806.79 2728.58 2784.09 2705.88 2756.33 2705.88L2302.21 2705.88 2302.21 2554.5 3109.54 2554.5Z"/><g><g><g><path d="M1438.17 1841.88 1438.17 2051.32C1438.17 2164.98 1530.12 2256.93 1643.78 2256.93 1715.29 2256.93 1780.43 2219.9 1818.74 2159.87 1900.47 2221.17 1998.81 2254.38 2100.97 2254.38L2268.27 2254.38 2274.66 2254.38 2237.62 2291.41C2227.4 2301.63 2227.4 2316.95 2237.62 2327.17 2247.84 2337.39 2263.16 2337.39 2273.38 2327.17L2350 2250.55C2360.22 2240.33 2360.22 2225 2350 2214.79L2273.38 2136.89C2264.44 2126.67 2247.84 2125.39 2237.62 2134.33 2227.4 2143.27 2226.13 2159.87 2235.07 2170.09L2235.07 2170.09 2236.34 2171.37 2261.89 2198.19 2265.72 2202.02 2100.97 2202.02C2006.47 2202.02 1914.52 2170.09 1840.45 2111.34 1841.72 2108.79 1843 2104.96 1843 2102.4L1901.75 1878.91C1926.01 1789.52 1986.04 1712.89 2067.77 1669.47 2115.02 1742.27 2140.56 1826.55 2140.56 1912.12L2140.56 1914.67 2107.36 1881.47C2097.14 1871.25 2081.82 1871.25 2071.6 1881.47 2061.38 1891.69 2061.38 1907.01 2071.6 1917.23L2148.23 1993.85C2158.44 2004.07 2173.77 2004.07 2183.98 1993.85L2261.89 1917.23C2272.1 1907.01 2273.38 1891.69 2263.16 1881.47 2254.22 1871.25 2237.62 1869.97 2227.4 1880.19L2226.13 1881.47 2191.65 1915.95 2191.65 1912.12C2191.65 1818.89 2164.83 1728.22 2116.3 1650.32 2152.06 1637.55 2189.09 1631.16 2227.4 1631.16L2449.62 1631.16 2416.41 1664.36C2406.2 1674.58 2406.2 1691.18 2416.41 1700.12 2426.63 1709.06 2443.23 1710.34 2452.17 1700.12L2528.8 1623.5C2539.01 1613.28 2539.01 1597.96 2528.8 1587.74L2528.8 1587.74 2452.17 1509.84C2441.95 1499.62 2426.63 1498.34 2416.41 1508.56 2406.2 1517.5 2404.92 1534.1 2415.14 1544.32L2416.41 1545.6 2449.62 1578.8 2226.13 1578.8C2177.6 1578.8 2130.35 1587.74 2084.37 1605.62 2024.35 1530.27 1943.89 1472.8 1851.94 1443.43 1923.46 1389.79 2011.58 1361.7 2100.97 1361.7 2115.02 1361.7 2126.51 1350.2 2126.51 1336.15 2126.51 1322.11 2115.02 1310.61 2100.97 1310.61 1987.31 1310.61 1876.21 1352.76 1790.64 1428.1 1689.75 1408.95 1585.03 1421.72 1490.53 1466.42 1477.76 1472.8 1471.37 1486.85 1477.76 1499.62 1484.14 1512.39 1498.19 1518.78 1510.96 1512.39 1510.96 1512.39 1510.96 1512.39 1512.24 1512.39 1570.98 1484.3 1634.84 1470.25 1698.69 1470.25 1714.02 1470.25 1729.34 1471.52 1744.67 1472.8 1577.37 1664.36 1592.69 1952.99 1777.87 2125.39 1735.73 2199.46 1641.22 2226.28 1567.15 2184.14 1518.62 2157.32 1487.97 2104.96 1487.97 2048.77L1487.97 1848.26 1487.97 1844.43 1521.18 1877.64C1531.39 1887.85 1546.72 1887.85 1556.94 1877.64 1567.15 1867.42 1567.15 1852.1 1556.94 1841.88L1480.31 1765.25C1470.09 1755.04 1454.77 1755.04 1444.55 1765.25L1366.65 1841.88C1356.43 1850.82 1355.16 1867.42 1364.1 1877.64 1373.04 1887.85 1389.64 1889.13 1399.85 1880.19L1399.85 1880.19 1401.13 1878.91 1438.17 1841.88ZM1853.22 1867.42 1798.3 2074.31C1638.67 1908.29 1642.5 1645.21 1805.97 1484.3 1896.64 1507.28 1978.37 1557.09 2038.4 1629.88 1946.45 1680.97 1880.04 1766.53 1853.22 1867.42Z" stroke="#595959" stroke-width="12.7708" fill="#595959"/></g></g></g></g></svg>