<svg width="189" height="189" xmlns="http://www.w3.org/2000/svg" xmlns:xlink="http://www.w3.org/1999/xlink" xml:space="preserve" overflow="hidden"><g transform="translate(-887 -735)"><path d="M1056.31 874.781 1050.41 880.688 914.562 880.688 906.688 872.812 906.688 833.438 914.562 825.562 1050.41 825.562 1056.31 831.469 1056.31 874.781ZM894.875 813.75 894.875 892.5 1068.12 892.5 1068.12 813.75 894.875 813.75Z" fill="#C04F15"/><path d="M997.25 853.125C997.25 863.998 990.198 872.812 981.5 872.812 972.802 872.812 965.75 863.998 965.75 853.125 965.75 842.252 972.802 833.438 981.5 833.438 990.198 833.438 997.25 842.252 997.25 853.125Z" fill="#C04F15"/><path d="M938.188 853.125C938.188 856.387 935.543 859.031 932.281 859.031 929.019 859.031 926.375 856.387 926.375 853.125 926.375 849.863 929.019 847.219 932.281 847.219 935.543 847.219 938.188 849.863 938.188 853.125Z" fill="#C04F15"/><path d="M1036.62 853.125C1036.62 856.387 1033.98 859.031 1030.72 859.031 1027.46 859.031 1024.81 856.387 1024.81 853.125 1024.81 849.863 1027.46 847.219 1030.72 847.219 1033.98 847.219 1036.62 849.863 1036.62 853.125Z" fill="#C04F15"/><path d="M1016.74 775.753 1019.69 783.234 1031.51 780.872 1023.24 760.2 917.319 803.513 977.956 791.503Z" fill="#C04F15"/><path d="M1006.5 805.875 1037.61 799.772 1038.99 805.875 1051 805.875 1047.06 785.794 946.062 805.875Z" fill="#C04F15"/></g></svg>