<svg width="189" height="189" xmlns="http://www.w3.org/2000/svg" xmlns:xlink="http://www.w3.org/1999/xlink" xml:space="preserve" overflow="hidden"><g transform="translate(-355 -913)"><path d="M516.449 1037.03C516.449 1039.2 514.686 1040.97 512.511 1040.97 510.337 1040.97 508.574 1039.2 508.574 1037.03 508.574 1034.85 510.337 1033.09 512.511 1033.09 514.686 1033.09 516.449 1034.85 516.449 1037.03Z" fill="#215F9A"/><path d="M540.074 1021.28C540.074 1023.45 538.311 1025.22 536.137 1025.22 533.962 1025.22 532.199 1023.45 532.199 1021.28 532.199 1019.1 533.962 1017.34 536.137 1017.34 538.311 1017.34 540.074 1019.1 540.074 1021.28Z" fill="#215F9A"/><path d="M540.074 1037.03C540.074 1039.2 538.311 1040.97 536.137 1040.97 533.962 1040.97 532.199 1039.2 532.199 1037.03 532.199 1034.85 533.962 1033.09 536.137 1033.09 538.311 1033.09 540.074 1034.85 540.074 1037.03Z" fill="#215F9A"/><path d="M528.262 1029.15C528.262 1031.33 526.499 1033.09 524.324 1033.09 522.149 1033.09 520.387 1031.33 520.387 1029.15 520.387 1026.98 522.149 1025.22 524.324 1025.22 526.499 1025.22 528.262 1026.98 528.262 1029.15Z" fill="#215F9A"/><path d="M528.262 1044.9C528.262 1047.08 526.499 1048.84 524.324 1048.84 522.149 1048.84 520.387 1047.08 520.387 1044.9 520.387 1042.73 522.149 1040.97 524.324 1040.97 526.499 1040.97 528.262 1042.73 528.262 1044.9Z" fill="#215F9A"/><path d="M540.074 1052.78C540.074 1054.95 538.311 1056.72 536.137 1056.72 533.962 1056.72 532.199 1054.95 532.199 1052.78 532.199 1050.6 533.962 1048.84 536.137 1048.84 538.311 1048.84 540.074 1050.6 540.074 1052.78Z" fill="#215F9A"/><path d="M405.766 1033.13 405.766 1082.96 467.981 1082.96 467.981 1059.32 477.629 1059.32C483.838 1059.31 489.788 1056.83 494.167 1052.43 498.486 1047.93 500.887 1041.93 500.861 1035.69L500.861 1023.88 509.524 1023.88C514.643 1023.29 519.171 1017.38 514.446 1010.09L500.861 986.46 500.861 985.475C502.108 952.8 476.631 925.3 443.956 924.053 411.28 922.806 383.781 948.283 382.533 980.958 382.476 982.463 382.476 983.97 382.533 985.475 382.457 1004.11 391.041 1021.72 405.766 1033.13ZM483.741 982.045C487.003 982.045 489.647 984.69 489.647 987.951 489.647 991.214 487.003 993.858 483.741 993.858 480.479 993.858 477.835 991.214 477.835 987.951 477.776 984.748 480.325 982.104 483.528 982.045 483.599 982.044 483.67 982.044 483.741 982.045Z" fill="#215F9A"/></g></svg>