<svg width="189" height="189" xmlns="http://www.w3.org/2000/svg" xmlns:xlink="http://www.w3.org/1999/xlink" xml:space="preserve" overflow="hidden"><g transform="translate(-34 -913)"><path d="M61.1406 1033.13 61.1406 1082.95 123.356 1082.95 123.356 1059.32 133.004 1059.32C139.213 1059.31 145.163 1056.83 149.542 1052.43 153.861 1047.93 156.262 1041.92 156.236 1035.69L156.236 1023.87 164.899 1023.87C170.018 1023.28 174.546 1017.37 169.821 1010.09L156.236 986.455 156.236 985.47C157.483 952.795 132.006 925.295 99.3302 924.048 66.6551 922.801 39.1554 948.278 37.9081 980.954 37.8507 982.459 37.8507 983.965 37.9081 985.47 37.8317 1004.1 46.4162 1021.71 61.1406 1033.13ZM139.116 982.041C142.378 982.041 145.022 984.685 145.022 987.947 145.022 991.209 142.378 993.853 139.116 993.853 135.854 993.853 133.209 991.209 133.209 987.947 133.151 984.744 135.7 982.099 138.903 982.041 138.974 982.039 139.045 982.039 139.116 982.041Z" fill="#215F9A"/><path d="M201.286 995.685C211.1 995.691 219.061 987.739 219.067 977.925 219.071 972.322 216.431 967.045 211.946 963.687L211.946 927.601C211.946 921.714 207.173 916.941 201.286 916.941 195.398 916.941 190.626 921.714 190.626 927.601L190.626 963.687C182.769 969.569 181.167 980.706 187.048 988.563 190.406 993.049 195.682 995.688 201.286 995.685ZM195.956 966.709 195.956 927.601C195.95 924.657 198.332 922.267 201.275 922.261 204.219 922.255 206.61 924.637 206.616 927.581 206.616 927.587 206.616 927.594 206.616 927.601L206.616 966.709C211.845 969.217 214.647 975.007 213.367 980.664 212.027 986.275 207.054 990.263 201.286 990.352 194.419 990.328 188.873 984.742 188.898 977.876 188.915 973.108 191.657 968.77 195.956 966.709Z" fill="#215F9A"/><path d="M201.286 986.797C206.198 986.766 210.155 982.759 210.125 977.846 210.098 973.661 207.158 970.06 203.062 969.198L203.062 933.712 199.509 933.712 199.509 969.198C194.702 970.21 191.625 974.927 192.637 979.734 193.5 983.83 197.1 986.771 201.286 986.797Z" fill="#215F9A"/><path d="M176.746 920.872 170.84 920.872C170.836 921.955 170.369 922.985 169.556 923.701 166.017 927.399 166.017 933.228 169.556 936.926 171.12 938.297 171.276 940.677 169.905 942.241 169.796 942.365 169.679 942.482 169.555 942.591 166.018 946.293 166.017 952.123 169.554 955.826 171.122 957.203 171.277 959.589 169.901 961.157 169.793 961.28 169.677 961.396 169.554 961.503 167.84 963.279 166.888 965.654 166.902 968.122L172.808 968.122C172.811 967.036 173.279 966.003 174.093 965.283 177.63 961.579 177.63 955.75 174.093 952.046 172.527 950.672 172.371 948.287 173.745 946.72 173.853 946.597 173.969 946.481 174.092 946.373 177.631 942.672 177.63 936.843 174.092 933.143 172.529 931.775 172.371 929.4 173.739 927.837 173.849 927.712 173.967 927.594 174.092 927.485 175.807 925.712 176.759 923.339 176.746 920.872Z" fill="#215F9A"/><path d="M162.965 920.069C162.975 919.003 162.802 917.943 162.454 916.935L155.525 916.935C155.609 917.037 155.695 917.142 155.775 917.238 157.339 918.61 157.495 920.99 156.124 922.554 156.015 922.678 155.898 922.795 155.774 922.903 152.237 926.606 152.236 932.435 155.773 936.139 157.341 937.515 157.496 939.902 156.119 941.469 156.012 941.592 155.896 941.708 155.773 941.816 154.059 943.591 153.107 945.967 153.121 948.435L159.027 948.435C159.03 947.348 159.498 946.315 160.312 945.596 163.849 941.892 163.849 936.062 160.312 932.359 158.745 930.984 158.589 928.599 159.964 927.032 160.072 926.909 160.188 926.793 160.311 926.685 162.026 924.911 162.978 922.537 162.965 920.069Z" fill="#215F9A"/></g></svg>