<svg width="189" height="189" xmlns="http://www.w3.org/2000/svg" xmlns:xlink="http://www.w3.org/1999/xlink" xml:space="preserve" overflow="hidden"><g transform="translate(-5 -688)"><path d="M174.312 829.75C174.312 832.309 171.359 834.672 166.438 836.444L166.438 829.356C169.194 828.569 171.95 827.388 174.312 826.206L174.312 829.75ZM158.562 816.756 158.562 809.669C161.319 808.881 164.075 807.7 166.438 806.519L166.438 810.062C166.438 812.622 163.484 814.984 158.562 816.756ZM158.562 838.806C156.2 839.397 153.444 839.791 150.688 840.184L150.688 832.506C153.247 832.112 156.003 831.719 158.562 831.325L158.562 838.806ZM142.812 812.819C145.372 812.425 148.128 812.031 150.688 811.638L150.688 819.119C148.325 819.709 145.569 820.103 142.812 820.497L142.812 812.819ZM142.812 841.169C140.253 841.366 137.694 841.562 134.938 841.562L134.938 833.688C137.3 833.688 140.056 833.491 142.812 833.294L142.812 841.169ZM127.062 821.875 127.062 814C129.425 814 132.181 813.803 134.938 813.606L134.938 821.481C132.378 821.678 129.819 821.678 127.062 821.875ZM127.062 841.562C124.306 841.562 121.747 841.366 119.188 841.169L119.188 833.688C120.566 833.688 121.747 833.688 123.125 833.688 124.306 833.688 125.684 833.688 127.062 833.688L127.062 841.562ZM111.312 813.606C113.872 813.803 116.431 814 119.188 814L119.188 821.875C116.431 821.875 113.872 821.678 111.312 821.481L111.312 813.606ZM111.312 840.184C108.556 839.791 105.8 839.397 103.438 838.806L103.438 832.506C105.997 832.9 108.556 833.097 111.312 833.294L111.312 840.184ZM95.5625 819.119 95.5625 811.441C98.1219 811.834 100.681 812.425 103.438 812.622L103.438 820.497C100.681 820.103 97.925 819.709 95.5625 819.119ZM95.5625 836.444C90.6406 834.475 87.6875 832.112 87.6875 829.75L87.6875 829.356C87.6875 829.356 87.6875 829.356 87.8844 829.356 88.475 829.553 88.8687 829.75 89.4594 829.75 91.4281 830.341 93.3969 830.734 95.5625 831.128L95.5625 836.444ZM64.0625 809.669C65.4406 809.669 66.6219 809.866 68 809.866L68 810.062C68 812.819 68.5906 815.575 69.9688 817.741 68 817.741 66.0312 817.544 64.0625 817.347L64.0625 809.669ZM56.1875 786.044C58.7469 786.438 61.3063 787.028 64.0625 787.225L64.0625 795.1C61.3063 794.706 58.55 794.312 56.1875 793.722L56.1875 786.044ZM56.1875 816.559C53.4313 816.166 50.675 815.772 48.3125 815.181L48.3125 807.503C50.8719 807.897 53.4313 808.487 56.1875 808.684L56.1875 816.559ZM40.4375 784.469 40.4375 780.925C42.8 782.106 45.3594 783.091 48.3125 783.878L48.3125 791.162C43.3906 789.391 40.4375 787.028 40.4375 784.469ZM40.4375 812.819C35.5156 810.85 32.5625 808.487 32.5625 806.125L32.5625 802.581C34.925 803.763 37.4844 804.747 40.4375 805.534L40.4375 812.819ZM32.5625 751.394C34.925 752.575 37.4844 753.559 40.4375 754.347L40.4375 761.631C35.5156 759.662 32.5625 757.3 32.5625 754.938L32.5625 751.394ZM56.1875 757.694 56.1875 765.569C53.4313 765.175 50.675 764.781 48.3125 764.191L48.3125 756.513C50.8719 756.906 53.4313 757.3 56.1875 757.694ZM75.875 723.438C99.8938 723.438 119.188 728.753 119.188 735.25 119.188 741.747 99.8938 747.062 75.875 747.062 51.8562 747.062 32.5625 741.747 32.5625 735.25 32.5625 728.753 51.8562 723.438 75.875 723.438ZM87.6875 816.756C82.7656 814.787 79.8125 812.425 79.8125 810.062L79.8125 806.519C82.175 807.7 84.7344 808.684 87.6875 809.472L87.6875 816.756ZM111.312 761.631 111.312 754.544C114.069 753.756 116.825 752.575 119.188 751.394L119.188 754.938C119.188 757.497 116.234 759.859 111.312 761.631ZM95.5625 765.372 95.5625 757.694C98.1219 757.3 100.878 756.906 103.438 756.513L103.438 763.994C101.075 764.584 98.3188 764.978 95.5625 765.372ZM79.8125 766.75 79.8125 758.875C82.175 758.875 84.9312 758.678 87.6875 758.481L87.6875 766.356C85.1281 766.553 82.5688 766.553 79.8125 766.75ZM64.0625 766.356 64.0625 758.481C66.6219 758.678 69.1812 758.875 71.9375 758.875L71.9375 766.75C69.1812 766.553 66.6219 766.553 64.0625 766.356ZM166.438 790.375C166.438 796.872 147.144 802.188 123.125 802.188 99.1062 802.188 79.8125 796.872 79.8125 790.375 79.8125 783.878 99.1062 778.562 123.125 778.562 147.144 778.562 166.438 783.878 166.438 790.375ZM178.25 796.281 178.25 790.375C178.25 781.122 170.966 774.428 156.791 770.688 151.475 769.309 145.372 768.128 138.481 767.537 138.678 766.75 138.678 765.766 138.678 764.781 138.678 759.269 136.119 754.544 130.803 751L130.803 735.25C130.803 725.997 123.519 719.303 109.344 715.562 100.091 713.003 88.2781 711.625 75.6781 711.625 59.1406 711.625 20.5531 713.987 20.5531 735.25L20.5531 754.938C20.5531 760.45 23.1125 765.175 28.4281 768.719L28.4281 772.459C23.7031 775.806 20.5531 780.334 20.5531 786.438L20.5531 806.125C20.5531 815.378 27.8375 822.072 42.0125 825.812 51.2656 828.372 63.0781 829.75 75.6781 829.75 75.6781 839.003 82.9625 845.697 97.1375 849.438 106.391 851.997 118.203 853.375 130.803 853.375 147.341 853.375 185.928 851.013 185.928 829.75L185.928 810.062C186.125 804.55 183.566 799.825 178.25 796.281Z" fill="#C04F15"/></g></svg>