<svg width="189" height="189" xmlns="http://www.w3.org/2000/svg" xmlns:xlink="http://www.w3.org/1999/xlink" xml:space="preserve" overflow="hidden"><g transform="translate(-281 -661)"><path d="M442.083 754.091 430.799 734.462 430.799 733.477C432.067 700.815 406.617 673.308 373.955 672.039 345.285 670.926 319.946 690.536 313.832 718.568L396.237 755.87 433.538 758.65C436.791 758.894 439.231 761.728 438.988 764.982 438.969 765.239 438.932 765.496 438.88 765.749L432.94 794.155C432.112 798.046 428.683 800.832 424.705 800.846L393.377 800.846C392.303 800.85 391.274 800.411 390.534 799.632 390.366 799.455 390.214 799.261 390.082 799.055L335.703 785.207 335.703 830.958 397.919 830.958 397.919 808.721 424.705 808.721C432.406 808.694 439.046 803.299 440.647 795.766L446.587 767.36C447.615 762.447 445.89 757.363 442.083 754.091ZM413.678 741.86C410.417 741.86 407.772 739.216 407.772 735.954 407.772 732.692 410.417 730.048 413.678 730.048 416.94 730.048 419.585 732.692 419.585 735.954 419.643 739.157 417.094 741.801 413.891 741.86 413.82 741.861 413.749 741.861 413.678 741.86Z" fill="#215F9A"/><path d="M391.004 759.985 312.831 724.599C312.491 727.545 312.37 730.513 312.471 733.477 312.413 750.532 319.611 766.806 332.267 778.237L389.608 792.84Z" fill="#215F9A"/></g></svg>