<svg width="189" height="189" xmlns="http://www.w3.org/2000/svg" xmlns:xlink="http://www.w3.org/1999/xlink" xml:space="preserve" overflow="hidden"><g transform="translate(-325 -362)"><path d="M490.386 389.555 348.636 389.555C344.292 389.568 340.774 393.086 340.761 397.43L340.761 491.93C340.774 496.274 344.292 499.793 348.636 499.805L403.761 499.805 403.761 511.618 384.074 511.618 384.074 523.43 454.949 523.43 454.949 511.618 435.261 511.618 435.261 499.805 490.386 499.805C494.73 499.793 498.249 496.274 498.261 491.93L498.261 397.43C498.249 393.086 494.73 389.568 490.386 389.555ZM486.449 487.993 352.574 487.993 352.574 401.368 486.449 401.368Z" fill="#215F9A"/><path d="M372.599 466.991C379.413 466.774 398.636 467.189 414.254 477.392 414.991 477.88 415.853 478.143 416.737 478.149L422.309 478.149C423.156 478.144 423.985 477.902 424.701 477.449 441.081 467.243 459.708 466.777 466.383 466.988 467.621 467.028 468.657 466.057 468.697 464.819 468.7 464.724 468.697 464.629 468.688 464.535L465.314 428.106C465.209 426.947 464.234 426.061 463.07 426.066 462.509 426.071 461.824 426.088 461.056 426.119L460.47 419.869 458.807 419.749C457.074 419.675 455.337 419.723 453.61 419.893L453.08 413.75 451.598 413.483C439.79 412.023 427.963 416.044 419.493 424.398 411.022 416.044 399.196 412.023 387.388 413.483L385.906 413.75 385.376 419.893C383.649 419.723 381.912 419.675 380.179 419.748L378.516 419.868 377.93 426.119C377.163 426.088 376.478 426.071 375.916 426.066 374.752 426.061 373.778 426.947 373.673 428.106L370.299 464.538C370.18 465.769 371.083 466.863 372.314 466.982 372.409 466.991 372.504 466.994 372.599 466.991ZM421.463 428.016C428.721 420.447 438.959 416.479 449.423 417.181L452.474 452.529C441.043 454.624 430.354 459.662 421.463 467.147ZM421.463 472.555C434.985 458.718 454.629 456.167 454.83 456.142L456.718 455.912 453.951 423.843C455.129 423.734 456.13 423.679 456.871 423.663L460.211 459.343C446.14 459.737 432.563 464.62 421.463 473.276ZM389.561 417.193C400.016 416.545 410.232 420.5 417.525 428.019L417.525 467.149C408.634 459.663 397.944 454.624 386.512 452.529ZM382.117 423.658C382.858 423.673 383.858 423.725 385.036 423.833L382.269 455.914 384.157 456.142C384.358 456.167 403.974 458.684 417.525 472.557L417.525 473.278C406.425 464.62 392.847 459.737 378.775 459.342Z" fill="#215F9A"/><path d="M427.386 445.549 427.386 450.377C432.703 446.521 438.598 443.531 444.85 441.519L444.54 437.48C438.473 439.355 432.699 442.071 427.386 445.549Z" fill="#215F9A"/><path d="M443.74 427.066C437.963 428.923 432.462 431.55 427.386 434.877L427.386 439.704C432.472 436.01 438.092 433.114 444.051 431.116Z" fill="#215F9A"/></g></svg>