<svg width="189" height="189" xmlns="http://www.w3.org/2000/svg" xmlns:xlink="http://www.w3.org/1999/xlink" xml:space="preserve" overflow="hidden"><g transform="translate(-613 -362)"><path d="M778.386 389.56 636.636 389.56C632.292 389.573 628.774 393.091 628.761 397.435L628.761 491.935C628.774 496.279 632.292 499.797 636.636 499.81L691.761 499.81 691.761 511.623 672.074 511.623 672.074 523.435 742.949 523.435 742.949 511.623 723.261 511.623 723.261 499.81 778.386 499.81C782.73 499.797 786.249 496.279 786.261 491.935L786.261 397.435C786.249 393.091 782.73 389.573 778.386 389.56ZM692.746 487.998 640.574 487.998 640.574 447.639 692.746 447.639ZM692.746 441.732 640.574 441.732 640.574 401.373 692.746 401.373ZM774.449 487.998 698.652 487.998 698.652 401.373 774.449 401.373Z" fill="#215F9A"/><path d="M756.73 453.538C756.775 451.823 755.963 450.198 754.565 449.205 751.448 446.764 747.834 445.038 743.977 444.149 741.085 443.279 738.092 442.794 735.074 442.704 732.049 442.714 729.044 443.201 726.171 444.149 722.369 445.19 718.783 446.903 715.583 449.205 714.226 450.233 713.426 451.836 713.417 453.538L713.417 464.372 756.73 464.372Z" fill="#215F9A"/><path d="M745.902 428.981C745.902 434.961 741.054 439.809 735.074 439.809 729.094 439.809 724.246 434.961 724.246 428.981 724.246 423.001 729.094 418.153 735.074 418.153 741.054 418.153 745.902 423.001 745.902 428.981Z" fill="#215F9A"/><path d="M679.949 429.059C679.977 428.003 679.477 427.003 678.616 426.392 676.698 424.89 674.474 423.828 672.101 423.28 670.321 422.745 668.479 422.446 666.622 422.391 664.76 422.397 662.911 422.697 661.143 423.28 658.803 423.921 656.597 424.975 654.627 426.392 653.792 427.025 653.299 428.011 653.295 429.059L653.295 435.726 679.949 435.726Z" fill="#215F9A"/><path d="M673.287 413.946C673.287 417.627 670.303 420.611 666.622 420.611 662.941 420.611 659.956 417.627 659.956 413.946 659.956 410.265 662.941 407.281 666.622 407.281 670.303 407.281 673.287 410.265 673.287 413.946Z" fill="#215F9A"/><path d="M679.949 475.424C679.977 474.369 679.477 473.369 678.616 472.757 676.698 471.255 674.474 470.193 672.101 469.646 670.321 469.111 668.479 468.812 666.622 468.757 664.76 468.763 662.911 469.063 661.143 469.646 658.803 470.287 656.597 471.34 654.627 472.757 653.792 473.39 653.299 474.376 653.295 475.424L653.295 482.091 679.949 482.091Z" fill="#215F9A"/><path d="M673.287 460.312C673.287 463.993 670.303 466.977 666.622 466.977 662.941 466.977 659.956 463.993 659.956 460.312 659.956 456.631 662.941 453.647 666.622 453.647 670.303 453.647 673.287 456.631 673.287 460.312Z" fill="#215F9A"/></g></svg>