<svg width="189" height="189" xmlns="http://www.w3.org/2000/svg" xmlns:xlink="http://www.w3.org/1999/xlink" xml:space="preserve" overflow="hidden"><g transform="translate(-31 -661)"><path d="M106.994 714.944C106.994 721.468 101.705 726.756 95.1812 726.756 88.6574 726.756 83.3687 721.468 83.3687 714.944 83.3687 708.42 88.6574 703.131 95.1812 703.131 101.705 703.131 106.994 708.42 106.994 714.944Z" fill="#215F9A"/><path d="M168.025 695.256C168.025 701.78 162.736 707.069 156.212 707.069 149.689 707.069 144.4 701.78 144.4 695.256 144.4 688.732 149.689 683.444 156.212 683.444 162.736 683.444 168.025 688.732 168.025 695.256Z" fill="#215F9A"/><path d="M211.337 707.069C208.975 704.706 205.431 704.706 203.069 707.069L194.8 715.338 182.987 706.675C181.413 705.494 179.444 705.1 177.869 705.888L150.306 713.763C149.519 714.156 148.337 714.55 147.944 715.338L137.706 725.575 124.319 725.575C121.169 725.575 118.413 728.331 118.413 731.481 118.413 734.631 121.169 737.388 124.319 737.388L140.069 737.388C141.644 737.388 143.219 736.6 144.4 735.812L155.031 725.181 163.3 749.594 144.794 761.8C142.825 762.981 142.038 765.344 142.038 767.706L145.975 795.269C146.369 798.025 148.731 800.388 151.881 800.388 152.275 800.388 152.275 800.388 152.669 800.388 155.819 799.994 158.181 796.844 157.788 793.694L154.244 769.675 170.388 759.044 166.056 768.494C165.663 769.675 165.269 770.463 165.663 771.644L169.6 799.206C169.994 801.963 172.356 804.325 175.506 804.325 175.9 804.325 175.9 804.325 176.294 804.325 179.444 803.931 181.806 800.781 181.413 797.631L177.869 771.25 186.925 750.775C186.925 750.775 187.712 748.019 187.712 746.838 187.712 745.263 186.925 742.9 186.925 742.9L180.625 719.275 191.65 727.544C194.013 729.119 197.163 729.119 199.525 727.15L211.337 715.338C213.7 712.975 213.7 709.431 211.337 707.069Z" fill="#215F9A"/><path d="M131.8 748.019C130.225 745.263 126.681 744.081 123.925 745.263L112.9 750.775 103.844 735.812C103.056 734.631 101.875 733.45 100.3 733.056L72.7375 725.181C70.7688 724.787 68.4062 725.181 66.8313 726.756L55.8063 737.781 47.9313 727.544C46.75 724.787 42.8125 724.394 40.0563 725.969 37.6937 727.938 37.3 731.875 38.875 734.237L50.6875 749.987C51.8688 751.169 53.4437 752.35 55.0187 752.35 56.5938 752.35 58.5625 751.956 59.7438 750.775L71.1625 739.356 64.075 766.131C63.6813 767.312 63.2875 768.888 63.2875 770.069 63.2875 772.431 64.075 774.794 65.65 776.763L76.675 794.481 69.5875 819.681C68.8 822.831 70.375 825.981 73.525 827.162 73.9187 827.162 74.7063 827.556 75.1 827.556 77.8562 827.556 80.2188 825.981 80.6125 823.225L88.4875 795.662C88.8812 794.088 88.8812 792.119 87.7 790.938L81.0062 780.306 96.7563 789.756 96.7563 818.106C96.7563 821.256 99.5125 824.013 102.663 824.013 105.812 824.013 108.569 821.256 108.569 818.106L108.569 786.606C108.569 784.638 107.387 782.669 105.812 781.487L88.8812 771.25 96.3625 746.838 105.419 761.8C106.6 763.769 108.569 764.556 110.538 764.556 111.325 764.556 112.506 764.162 113.294 763.769L129.044 755.894C132.194 754.319 133.375 750.775 131.8 748.019Z" fill="#215F9A"/></g></svg>