<svg width="1106" height="814" xmlns="http://www.w3.org/2000/svg" xmlns:xlink="http://www.w3.org/1999/xlink" xml:space="preserve" overflow="hidden"><g transform="translate(-1388 -2244)"><g><g><g><path d="M219.038 344.105C187.94 354.922 158.87 367.767 133.856 388.048 117.631 400.893 108.843 419.146 108.167 439.427L108.167 558.41 114.251 562.467C146.025 584.1 231.206 594.917 317.74 595.593L317.74 395.484 277.853 436.723 219.038 344.105Z" fill="#C04F15" transform="matrix(1.00154 0 0 1 1388 2409)"/><path d="M540.833 439.427C540.157 419.822 531.369 400.893 515.82 388.724 490.806 368.443 461.06 355.598 430.639 344.105L371.823 436.723 331.26 395.484 331.26 595.593C419.822 594.917 506.355 584.1 535.425 561.791L540.833 557.734 540.833 439.427ZM482.694 468.497C482.694 492.158 454.976 500.271 454.976 500.271 454.976 500.271 427.258 492.158 427.258 468.497 427.258 459.032 429.962 459.032 429.962 450.92 429.286 447.54 427.934 444.835 425.906 442.131L435.371 432.667C438.075 435.371 441.455 436.723 444.835 436.723 448.216 436.723 451.596 435.371 454.3 433.343 457.004 435.371 460.384 436.723 463.765 436.723 467.145 436.723 470.525 435.371 473.229 432.667L482.694 442.131C480.666 444.835 479.314 447.54 478.638 450.92 479.99 458.356 482.694 458.356 482.694 468.497Z" fill="#C04F15" transform="matrix(1.00154 0 0 1 1388 2409)"/><path d="M463.765 77.0687C442.131 72.3365 421.174 66.9281 400.893 59.4917 385.344 54.0833 348.161 35.8302 332.612 27.7177 327.88 25.0135 321.796 25.0135 317.064 27.7177 301.515 35.8302 263.656 54.0833 248.783 60.1677 227.826 67.6042 206.869 73.0125 185.235 77.7448 176.447 79.7729 171.039 88.5615 173.067 97.35 173.743 100.054 175.095 103.434 177.123 105.463L204.165 132.504 204.165 141.293C204.165 150.757 208.897 159.546 216.333 164.954L216.333 223.094C216.333 257.572 232.558 290.022 260.276 310.303L231.206 339.373 279.881 415.766 317.74 376.555 317.74 375.203 270.417 317.74C303.543 336.669 344.781 336.669 377.907 317.74L331.26 374.527 331.26 375.879 369.119 415.09 417.794 338.697 388.724 309.627C416.442 289.346 432.667 256.896 432.667 222.418L432.667 162.926C440.103 157.518 444.835 148.729 444.835 139.265L444.835 131.152 471.877 104.11C477.961 98.026 477.961 87.2094 471.877 81.125 469.173 79.7729 466.469 77.7448 463.765 77.0687ZM348.837 106.139C348.837 127.096 324.5 133.856 324.5 133.856 324.5 133.856 300.163 127.096 300.163 106.139 300.163 97.35 302.867 97.35 302.867 90.5896 302.191 87.8854 301.515 85.1813 299.486 83.1531L308.275 74.3646C310.303 76.3927 313.683 77.7448 317.064 77.7448 320.444 77.7448 323.148 76.3927 325.852 74.3646 328.556 76.3927 331.26 77.7448 334.641 77.7448 338.021 77.7448 340.725 76.3927 342.753 74.3646L351.542 83.1531C349.514 85.1813 348.837 87.8854 348.161 90.5896 346.809 97.35 348.837 97.35 348.837 106.139ZM243.375 223.094 243.375 181.179C294.078 208.221 354.922 207.545 405.625 180.503L405.625 223.094C405.625 267.712 369.119 304.219 324.5 304.219 279.881 304.219 243.375 267.712 243.375 223.094Z" fill="#C04F15" transform="matrix(1.00154 0 0 1 1388 2409)"/></g></g></g><g><g><g><path d="M463.765 77.0687C442.131 72.3365 421.174 66.9281 400.893 59.4917 385.344 54.0833 348.161 35.8302 332.612 27.7177 327.88 25.0135 321.796 25.0135 317.064 27.7177 301.515 35.8302 263.656 54.0833 248.783 60.1677 227.826 67.6042 206.869 73.0125 185.235 77.7448 176.447 79.7729 171.039 88.5615 173.067 97.35 173.743 100.054 175.095 103.434 177.123 105.463L204.165 132.504 204.165 141.293C204.165 149.405 207.545 157.518 213.629 162.926 173.067 238.643 214.305 338.021 217.009 346.133 189.292 356.274 162.926 371.147 139.265 389.4 123.716 402.245 114.927 420.498 114.251 440.103L114.251 559.086 120.335 563.143C152.109 584.776 233.91 595.593 317.064 596.269L317.064 395.484 277.177 436.723 219.714 344.781 232.558 340.049 280.557 415.09 318.416 375.879 318.416 374.527 271.093 317.064C304.219 335.993 345.457 336.669 378.583 317.064L331.26 374.527 331.26 375.879 369.119 415.09 417.118 339.373 429.962 344.105 371.147 436.723 331.26 395.484 331.26 595.593C416.442 594.917 499.595 584.1 528.665 562.467L534.073 558.41 534.073 439.427C533.397 419.822 523.932 401.569 509.059 388.724 486.074 370.471 460.384 355.598 432.667 345.457 432.667 345.457 479.314 239.995 436.047 160.898 441.455 155.49 444.835 148.053 444.835 139.941L444.835 131.828 471.877 104.786C477.961 98.7021 477.961 87.8854 471.877 81.801 469.173 79.7729 466.469 77.7448 463.765 77.0687L463.765 77.0687ZM348.837 106.139C348.837 127.096 324.5 133.856 324.5 133.856 324.5 133.856 300.163 127.096 300.163 106.139 300.163 97.35 302.867 97.35 302.867 90.5896 302.191 87.8854 301.515 85.1813 299.486 83.1531L308.275 74.3646C310.303 76.3927 313.683 77.7448 317.064 77.7448 320.444 77.7448 323.148 76.3927 325.852 74.3646 328.556 76.3927 331.26 77.7448 334.641 77.7448 338.021 77.7448 340.725 76.3927 342.753 74.3646L351.542 83.1531C349.514 85.1813 348.837 87.8854 348.161 90.5896 346.809 97.35 348.837 97.35 348.837 106.139ZM324.5 304.219C279.881 304.219 243.375 267.712 243.375 223.094L243.375 181.179C294.078 208.221 354.922 207.545 405.625 180.503L405.625 223.094C405.625 267.712 369.119 304.219 324.5 304.219ZM482.694 468.497C482.694 492.158 454.976 500.271 454.976 500.271 454.976 500.271 427.258 492.158 427.258 468.497 427.258 459.032 429.962 459.032 429.962 450.92 429.286 447.54 427.934 444.835 425.906 442.131L435.371 432.667C438.075 435.371 441.455 436.723 444.835 436.723 448.216 436.723 451.596 435.371 454.3 433.343 457.004 435.371 460.384 436.723 463.765 436.723 467.145 436.723 470.525 435.371 473.229 432.667L482.694 442.131C480.666 444.835 479.314 447.54 478.638 450.92 479.99 458.356 482.694 458.356 482.694 468.497Z" fill="#C04F15" transform="matrix(1 0 0 1.00154 1845 2244)"/></g></g></g></g></svg>