<svg width="532" height="650" xmlns="http://www.w3.org/2000/svg" xmlns:xlink="http://www.w3.org/1999/xlink" xml:space="preserve" overflow="hidden"><defs><clipPath id="clip0"><rect x="743" y="863" width="532" height="650"/></clipPath></defs><g clip-path="url(#clip0)" transform="translate(-743 -863)"><path d="M1129.87 917.603C1089.59 914.495 1052.03 896.689 1024.78 867.783 1019.64 862.015 1010.65 861.374 1004.7 866.35 1004.17 866.792 1003.68 867.271 1003.22 867.783 975.971 896.689 938.412 914.495 898.133 917.603 890.648 918.283 884.944 924.397 885 931.68L885 967.196C885 1044.41 935.688 1115.04 1006.07 1158.74 1010.9 1161.75 1017.1 1161.75 1021.94 1158.74 1092.31 1115.03 1143 1044.41 1143 967.196L1143 931.68C1143.06 924.397 1137.35 918.283 1129.87 917.603ZM1118.32 967.196C1118.32 1028.64 1080.53 1090.62 1017.25 1133.04L1014 1135.21 1010.76 1133.04C947.472 1090.62 909.681 1028.62 909.681 967.196L909.681 940.517 914.481 939.782C950.244 934.303 983.531 918.684 1010.14 894.895L1014 891.452 1017.86 894.895C1044.47 918.684 1077.75 934.303 1113.51 939.782L1118.32 940.517Z" fill="#C04F15" fill-rule="evenodd"/><path d="M1014 906C987.611 928.405 955.481 943.477 921 949.627L921 966.998C921 1023.92 955.689 1081.61 1014 1122 1072.31 1081.62 1107 1023.92 1107 966.998L1107 949.627C1072.52 943.477 1040.39 928.405 1014 906ZM1004.24 1050.06 965.807 1012.75 978.866 1000.07 1004.24 1024.7 1056.2 974.259 1069.26 986.94Z" fill="#C04F15" fill-rule="evenodd"/><path d="M1106 1191C1106 1207.02 1092.34 1220 1075.5 1220 1058.66 1220 1045 1207.02 1045 1191 1045 1174.98 1058.66 1162 1075.5 1162 1092.34 1162 1106 1174.98 1106 1191Z" fill="#C04F15" fill-rule="evenodd"/><path d="M1233 1331.5C1233 1344.48 1222.03 1355 1208.5 1355 1194.97 1355 1184 1344.48 1184 1331.5 1184 1318.52 1194.97 1308 1208.5 1308 1222.03 1308 1233 1318.52 1233 1331.5Z" fill="#C04F15" fill-rule="evenodd"/><path d="M973 1191C973 1207.02 959.345 1220 942.5 1220 925.655 1220 912 1207.02 912 1191 912 1174.98 925.655 1162 942.5 1162 959.345 1162 973 1174.98 973 1191Z" fill="#C04F15" fill-rule="evenodd"/><path d="M833 1331.5C833 1344.48 822.255 1355 809 1355 795.745 1355 785 1344.48 785 1331.5 785 1318.52 795.745 1308 809 1308 822.255 1308 833 1318.52 833 1331.5Z" fill="#C04F15" fill-rule="evenodd"/><path d="M1273.9 1432.21 1252.73 1383.62C1245.47 1373.67 1233.98 1366.06 1221.28 1362.55 1217.65 1361.38 1212.81 1360.79 1208.58 1360.79 1200.11 1360.79 1192.25 1362.55 1184.99 1366.06L1148.1 1340.89 1126.32 1253.07C1125.72 1250.73 1123.91 1247.81 1122.09 1246.64 1114.83 1241.37 1106.37 1237.27 1097.29 1234.93 1090.04 1233.17 1082.78 1232 1075.52 1232 1068.26 1232 1061 1233.17 1054.35 1234.93 1045.28 1237.27 1036.81 1241.37 1029.55 1246.64 1027.14 1248.39 1025.93 1250.73 1025.32 1253.07L1008.99 1316.3 993.266 1253.07C992.661 1250.73 990.846 1247.81 989.032 1246.64 981.774 1241.37 973.307 1237.27 964.235 1234.93 956.977 1233.17 949.719 1232 942.462 1232 935.204 1232 927.946 1233.17 921.293 1234.93 912.221 1237.27 903.754 1241.37 896.496 1246.64 894.077 1248.39 892.867 1250.73 892.262 1253.07L870.489 1340.89 833.595 1366.06C825.733 1362.55 817.87 1360.79 809.403 1360.79 805.169 1360.79 800.331 1361.38 796.702 1362.55 784.001 1365.47 772.509 1373.09 765.252 1383.62L744.083 1432.21C741.664 1437.48 743.479 1443.34 747.712 1446.85 750.131 1448.02 752.551 1448.6 754.97 1448.6 759.808 1448.6 764.042 1445.68 765.857 1441.58L779.162 1411.14 779.162 1442.75 779.162 1513 803.355 1513 803.355 1442.75 815.451 1442.75 815.451 1513 839.644 1513 839.644 1390.06 840.248 1390.06 888.029 1357.86C890.448 1356.11 892.262 1353.77 892.867 1350.84L912.221 1272.98 912.221 1513 936.413 1513 936.413 1378.35 948.51 1378.35 948.51 1513 972.702 1513 972.702 1272.98 997.499 1369.57C998.709 1374.84 1003.55 1378.35 1008.99 1378.35 1014.43 1378.35 1019.27 1374.84 1020.48 1369.57L1045.28 1272.98 1045.28 1322.15 1024.11 1407.62 1045.28 1407.62 1045.28 1513 1069.47 1513 1069.47 1407.62 1081.57 1407.62 1081.57 1513 1105.76 1513 1105.76 1407.62 1126.93 1407.62 1105.76 1322.15 1105.76 1272.98 1125.72 1350.84C1126.32 1353.77 1128.14 1356.11 1130.56 1357.86L1178.94 1390.65 1178.94 1426.94 1166.24 1460.31 1178.34 1460.31 1178.34 1513 1202.53 1513 1202.53 1460.31 1214.63 1460.31 1214.63 1513 1238.82 1513 1238.82 1460.31 1250.92 1460.31 1239.42 1429.29 1239.42 1411.14 1252.73 1441.58C1254.54 1446.26 1259.38 1448.6 1263.62 1448.6 1266.04 1448.6 1268.46 1448.02 1270.87 1446.26 1274.5 1443.34 1276.32 1436.9 1273.9 1432.21Z" fill="#C04F15" fill-rule="evenodd"/></g></svg>