<svg width="461" height="650" xmlns="http://www.w3.org/2000/svg" xmlns:xlink="http://www.w3.org/1999/xlink" xml:space="preserve" overflow="hidden"><g transform="translate(-3294 -797)"><g><g><g><path d="M260.562 189.5C260.562 193.843 257.009 197.396 252.667 197.396L126.333 197.396C121.991 197.396 118.437 193.843 118.437 189.5L118.437 110.542C118.437 101.856 125.544 94.75 134.229 94.75L165.812 94.75C165.812 90.4072 169.366 86.8541 173.708 86.8541L205.292 86.8541C209.634 86.8541 213.187 90.4072 213.187 94.75L244.771 94.75C253.456 94.75 260.562 101.856 260.562 110.542L260.562 189.5ZM248.719 284.25C242.007 284.25 236.875 279.118 236.875 272.406 236.875 265.695 242.007 260.562 248.719 260.562 255.43 260.562 260.562 265.695 260.562 272.406 260.562 279.118 255.43 284.25 248.719 284.25ZM130.281 284.25C123.57 284.25 118.437 279.118 118.437 272.406 118.437 265.695 123.57 260.562 130.281 260.562 136.993 260.562 142.125 265.695 142.125 272.406 142.125 279.118 136.993 284.25 130.281 284.25ZM252.667 71.0625 197.396 71.0625 197.396 47.375 236.875 47.375 236.875 31.5833 142.125 31.5833 142.125 47.375 181.604 47.375 181.604 71.0625 126.333 71.0625C108.962 71.0625 94.75 85.275 94.75 102.646L94.75 284.25C94.75 297.278 105.409 307.937 118.437 307.937L121.991 307.937 104.225 347.416 121.596 347.416 139.361 307.937 239.638 307.937 257.404 347.416 274.775 347.416 257.009 307.937 260.562 307.937C273.59 307.937 284.25 297.278 284.25 284.25L284.25 102.646C284.25 85.275 270.037 71.0625 252.667 71.0625Z" fill="#C04F15" transform="matrix(1.20317 0 0 1 3294 1068)"/></g></g></g><g><g><g><path d="M31.5 118.125C31.5 113.794 35.0437 110.25 39.375 110.25L94.4999 110.25 94.4999 173.25 31.5 173.25 31.5 118.125ZM110.25 110.25 173.25 110.25 173.25 173.25 110.25 173.25 110.25 110.25ZM189 110.25 252 110.25 252 173.25 189 173.25 189 110.25ZM267.75 110.25 320.119 110.25C327.6 110.25 334.294 115.762 335.475 123.244L344.531 179.156C345.319 185.062 346.106 190.969 346.106 196.875L291.375 196.875 267.75 173.25 267.75 110.25ZM15.75 110.25 15.75 252C15.75 260.662 22.8375 267.75 31.5 267.75L32.2875 267.75C31.8937 265.387 31.5 262.631 31.5 259.875 31.5 238.219 49.2187 220.5 70.875 220.5 92.5312 220.5 110.25 238.219 110.25 259.875 110.25 262.631 109.856 265.387 109.462 267.75L252.787 267.75C252.394 265.387 252 262.631 252 259.875 252 238.219 269.719 220.5 291.375 220.5 313.031 220.5 330.75 238.219 330.75 259.875 330.75 262.631 330.356 265.387 329.962 267.75L346.5 267.75C355.162 267.75 362.25 260.662 362.25 252L362.25 201.6C362.25 193.331 361.462 184.669 360.281 176.4L351.225 120.094C348.469 105.131 335.475 94.1062 320.119 94.1062L31.5 94.1062C22.8375 94.4999 15.75 101.587 15.75 110.25Z" fill="#C04F15" transform="matrix(1.209 0 0 1 3298 797)"/><path d="M318.937 259.875C318.937 275.097 306.597 287.437 291.375 287.437 276.152 287.437 263.812 275.097 263.812 259.875 263.812 244.652 276.152 232.312 291.375 232.312 306.597 232.312 318.937 244.652 318.937 259.875Z" fill="#C04F15" transform="matrix(1.209 0 0 1 3298 797)"/><path d="M98.4374 259.875C98.4374 275.097 86.0973 287.437 70.875 287.437 55.6526 287.437 43.3125 275.097 43.3125 259.875 43.3125 244.652 55.6526 232.312 70.875 232.312 86.0973 232.312 98.4374 244.652 98.4374 259.875Z" fill="#C04F15" transform="matrix(1.209 0 0 1 3298 797)"/></g></g></g></g></svg>