<svg width="189" height="189" xmlns="http://www.w3.org/2000/svg" xmlns:xlink="http://www.w3.org/1999/xlink" xml:space="preserve" overflow="hidden"><g transform="translate(-565 -887)"><path d="M698.481 955.906 691.787 949.213 686.275 954.725 692.969 961.419 686.669 967.719 679.975 961.025 674.463 966.537 681.156 973.231 674.856 979.531 668.162 972.838 662.65 978.35 669.344 985.044 663.241 991.147 649.853 977.759 691 936.612 704.388 950 698.481 955.906ZM736.478 928.147 712.853 904.522C710.491 902.159 706.75 902.159 704.584 904.522 702.222 906.884 702.222 910.625 704.584 912.791L709.506 917.713 699.072 928.147 691 920.075 687.259 916.334C684.897 913.972 681.156 913.972 678.991 916.334 676.628 918.697 676.628 922.438 678.991 924.603L682.731 928.344 630.756 980.319C626.819 984.256 624.456 989.572 624.456 995.281 624.456 997.447 624.85 999.612 625.441 1001.78L615.203 1012.02C612.447 1014.77 611.659 1018.91 613.037 1022.45L581.931 1053.56C580.356 1055.13 580.356 1057.49 581.931 1059.07 582.719 1059.86 583.703 1060.25 584.688 1060.25 585.672 1060.25 586.656 1059.86 587.444 1059.07L618.55 1027.96C622.094 1029.34 626.228 1028.55 628.984 1025.8L639.222 1015.56C641.388 1016.15 643.553 1016.54 645.719 1016.54 651.231 1016.54 656.547 1014.58 660.681 1010.24L712.656 958.269 716.397 962.009C717.578 963.191 719.153 963.781 720.531 963.781 721.909 963.781 723.484 963.191 724.666 962.009 727.028 959.647 727.028 955.906 724.666 953.741L720.925 950 712.853 941.928 723.287 931.494 728.209 936.416C729.391 937.597 730.966 938.188 732.344 938.188 733.722 938.188 735.297 937.597 736.478 936.416 738.841 934.053 738.841 930.509 736.478 928.147Z" fill="#215F9A"/></g></svg>