<svg width="189" height="189" xmlns="http://www.w3.org/2000/svg" xmlns:xlink="http://www.w3.org/1999/xlink" xml:space="preserve" overflow="hidden"><g transform="translate(-275 -32)"><path d="M401.591 168.041C398.638 165.087 396.866 160.953 396.866 156.819L395.684 155.637C377.769 166.663 354.931 165.481 338.197 152.684L337.606 153.078C335.441 154.653 334.062 157.212 334.062 159.969L334.062 177.688 404.938 177.688 404.938 171.388 401.591 168.041Z" fill="#215F9A"/><path d="M419.703 109.766C429.35 108.191 435.847 98.9375 434.272 89.2906 432.697 79.6438 423.444 73.1469 413.797 74.7219 411.041 75.1156 408.481 76.2969 406.316 77.8719 414.388 86.5344 419.112 97.7563 419.703 109.766Z" fill="#215F9A"/><path d="M448.644 125.319C443.525 121.381 437.619 118.428 431.319 117.05 427.578 115.869 423.641 115.278 419.703 114.884 419.309 123.35 416.75 131.619 412.222 138.903L413.403 140.084C417.538 140.084 421.672 141.856 424.625 144.809L429.941 150.125 452.188 150.125 452.188 132.406C452.188 129.65 451.006 126.894 448.644 125.319Z" fill="#215F9A"/><path d="M439.194 167.647 420.688 148.944C418.128 146.581 414.781 145.4 411.237 146.188L404.544 139.691C410.647 131.816 413.797 122.366 413.797 112.522 413.994 87.7156 393.913 67.4375 368.909 67.2406 343.906 67.0437 324.022 87.125 324.022 111.931 324.022 136.738 343.906 157.016 368.909 157.212 378.753 157.212 388.4 154.062 396.472 147.959L403.166 154.456C402.575 157.803 403.559 161.347 405.922 163.906L424.625 182.609C428.562 186.744 435.256 186.941 439.391 183.003 443.525 179.066 443.722 172.372 439.784 168.237 439.587 168.041 439.391 167.844 439.194 167.647L439.194 167.647ZM369.106 76.4938C388.991 76.4938 404.938 92.4406 404.938 112.325 404.938 120.791 401.984 129.059 396.472 135.359 392.731 133.587 388.991 132.209 385.053 131.225 379.737 129.65 374.225 128.666 368.712 128.666 363.2 128.666 357.688 129.65 352.372 131.225 348.631 132.209 345.087 133.587 341.741 135.556 328.944 120.594 330.716 97.9531 345.678 85.1562 352.175 79.4469 360.444 76.4938 369.106 76.4938Z" fill="#215F9A"/><path d="M388.597 104.45C388.597 115.432 379.694 124.334 368.712 124.334 357.731 124.334 348.828 115.432 348.828 104.45 348.828 93.4682 357.731 84.5656 368.712 84.5656 379.694 84.5656 388.597 93.4682 388.597 104.45Z" fill="#215F9A"/><path d="M318.312 114.884C314.769 115.278 311.225 115.869 307.681 117.05 301.578 118.822 295.672 121.775 290.356 125.319 287.994 126.894 286.812 129.65 286.812 132.406L286.812 150.125 329.337 150.125C330.125 148.944 331.109 147.959 332.291 147.172 323.825 138.312 318.903 126.894 318.312 114.884Z" fill="#215F9A"/><path d="M318.312 109.569C318.903 97.5594 323.825 86.3375 332.094 77.4781 324.022 71.9656 312.997 74.1312 307.484 82.4 301.972 90.6687 304.138 101.497 312.406 107.009 314.178 108.191 316.147 108.978 318.312 109.569Z" fill="#215F9A"/></g></svg>