<svg width="189" height="189" xmlns="http://www.w3.org/2000/svg" xmlns:xlink="http://www.w3.org/1999/xlink" xml:space="preserve" overflow="hidden"><g transform="translate(-37 -362)"><path d="M209.856 399.406 83.8562 399.406C79.525 399.406 75.9812 402.95 75.9812 407.281L75.9812 435.828C78.1469 435.237 80.7063 434.844 83.0687 434.844 84.6438 434.844 86.2188 435.041 87.7937 435.237L87.7937 411.219 205.919 411.219 205.919 486.031 139.178 486.031 127.956 497.844 209.856 497.844C214.188 497.844 217.731 494.3 217.731 489.969L217.731 407.281C217.731 402.95 214.188 399.406 209.856 399.406" fill="#215F9A"/><path d="M83.2656 476.188C92.5188 476.188 100 468.706 100 459.453 100 450.2 92.5188 442.719 83.2656 442.719 74.0125 442.719 66.5312 450.2 66.5312 459.453 66.3344 468.706 74.0125 476.188 83.2656 476.188" fill="#215F9A"/><path d="M147.644 456.697C145.084 452.759 139.966 451.775 136.028 454.138 135.241 454.531 134.847 455.319 134.453 455.712L105.709 485.638C102.953 484.259 100 483.078 97.0469 482.094 92.5188 481.306 87.7937 480.322 83.2656 480.322 78.7375 480.322 74.0125 481.109 69.4844 482.487 62.7906 484.259 56.8844 487.606 51.9625 491.741 50.7812 492.922 49.7969 494.694 49.4031 496.269L45.2687 513.594 104.134 513.594 104.134 513.397 120.869 493.906 146.659 466.737C149.022 464.375 149.809 459.847 147.644 456.697" fill="#215F9A"/></g></svg>