<svg width="189" height="189" xmlns="http://www.w3.org/2000/svg" xmlns:xlink="http://www.w3.org/1999/xlink" xml:space="preserve" overflow="hidden"><g transform="translate(-908 -362)"><path d="M997.795 496.151C997.795 501.087 993.793 505.089 988.857 505.089 983.92 505.089 979.918 501.087 979.918 496.151 979.918 491.214 983.92 487.212 988.857 487.212 993.793 487.212 997.795 491.214 997.795 496.151Z" fill="#215F9A"/><path d="M1006.44 525.406 1006.44 516.468C1006.41 515.075 1005.76 513.768 1004.67 512.905 1002.1 510.925 999.158 509.479 996.023 508.652 993.656 507.926 991.194 507.554 988.719 507.55 986.246 507.588 983.789 507.959 981.415 508.652 978.314 509.57 975.391 511.008 972.772 512.905 971.679 513.768 971.029 515.075 971 516.468L971 525.406Z" fill="#215F9A"/><path d="M1036.89 496.151C1036.89 501.087 1032.89 505.089 1027.96 505.089 1023.02 505.089 1019.02 501.087 1019.02 496.151 1019.02 491.214 1023.02 487.212 1027.96 487.212 1032.89 487.212 1036.89 491.214 1036.89 496.151Z" fill="#215F9A"/><path d="M1045.81 525.406 1045.81 516.468C1045.78 515.075 1045.13 513.768 1044.04 512.905 1041.47 510.925 1038.53 509.479 1035.4 508.652 1033.03 507.926 1030.57 507.554 1028.09 507.55 1025.62 507.588 1023.16 507.959 1020.79 508.652 1017.69 509.57 1014.77 511.008 1012.15 512.905 1011.05 513.768 1010.4 515.075 1010.38 516.468L1010.38 525.406Z" fill="#215F9A"/><path d="M1076.27 496.151C1076.27 501.087 1072.27 505.089 1067.33 505.089 1062.39 505.089 1058.39 501.087 1058.39 496.151 1058.39 491.214 1062.39 487.212 1067.33 487.212 1072.27 487.212 1076.27 491.214 1076.27 496.151Z" fill="#215F9A"/><path d="M1085.19 525.406 1085.19 516.468C1085.16 515.075 1084.51 513.768 1083.42 512.905 1080.85 510.925 1077.91 509.479 1074.77 508.652 1072.41 507.926 1069.94 507.554 1067.47 507.55 1065 507.588 1062.54 507.959 1060.16 508.652 1057.06 509.57 1054.14 511.008 1051.52 512.905 1050.43 513.768 1049.78 515.075 1049.75 516.468L1049.75 525.406Z" fill="#215F9A"/><path d="M961.983 413.503C961.983 419.961 956.747 425.197 950.289 425.197 943.83 425.197 938.594 419.961 938.594 413.503 938.594 407.044 943.83 401.808 950.289 401.808 956.747 401.808 961.983 407.044 961.983 413.503Z" fill="#215F9A"/><path d="M1019.25 408.994C1018.1 407.853 1016.24 407.853 1015.08 408.994L989.644 434.43C987.611 433.857 985.427 434.412 983.915 435.887 983.502 436.301 976.158 448.31 976.158 448.31L973.953 438.919C973.661 437.708 973.057 436.595 972.201 435.69 968.572 432.757 964.396 430.575 959.916 429.272 956.749 428.595 953.526 428.206 950.289 428.111 947.022 428.161 943.778 428.651 940.642 429.568 936.121 430.753 931.928 432.947 928.377 435.986 927.513 436.885 926.907 438 926.624 439.214 926.624 439.214 918.139 474.849 918.139 475.439 918.139 478.701 920.783 481.346 924.045 481.346 926.659 481.279 928.918 479.5 929.597 476.975L935.74 451.558 935.74 533.281 947.375 533.281 947.375 480.696 953.281 480.696 953.281 533.281 964.897 533.281 964.897 451.184 967.062 460.438C967.213 461.077 967.638 461.618 968.224 461.914 970.488 463.652 973.246 464.624 976.099 464.69 977.957 464.95 979.798 464.114 980.824 462.544L992.833 442.857C993.601 441.646 993.889 440.193 993.641 438.781L1019.23 413.188C1020.39 412.033 1020.4 410.159 1019.25 408.994Z" fill="#215F9A"/><path d="M1059.59 381.688 963.125 381.688C958.776 381.688 955.25 385.213 955.25 389.562L955.25 396.65C958.26 397.469 960.985 399.105 963.125 401.375L963.125 389.562 1059.59 389.562 1059.59 454.531 992.4 454.531 987.597 462.406 1059.59 462.406C1063.94 462.406 1067.47 458.88 1067.47 454.531L1067.47 389.562C1067.47 385.213 1063.94 381.688 1059.59 381.688Z" fill="#215F9A"/></g></svg>